<?xml version="1.0" encoding="UTF-8" standalone="no"?>
<!-- Created with Inkscape (http://www.inkscape.org/) -->

<svg
   width="67.301697mm"
   height="66.827568mm"
   viewBox="0 0 67.301697 66.827568"
   version="1.1"
   id="svg5"
   xmlns="http://www.w3.org/2000/svg"
   xmlns:svg="http://www.w3.org/2000/svg">
  <defs
     id="defs2" />
  <g
     id="layer1"
     transform="translate(-48.294835,-108.85257)">
    <path
       id="path1"
       style="opacity:1;fill:#ffffff;stroke:none;stroke-width:0.264583;stroke-linejoin:round"
       d="m 108.539,141.207 c -2.032,-4.807 -4.645,9.95 -7.75,7.918 3.11,5.772 5.14187,-3.79824 6.383,-0.209 2.25871,6.53201 1.749,6.969 -1.93,4.833 -3.932,1.453 -4.686,-4.333 -3.523,1.239 1.713,6.277 3.357,6.642 -4.6114,6.258 5.2054,-7.291 -5.960979,-2.67901 -7.1168,0.349 -1.91168,5.00821 4.6718,12.13 1.0917,9.873 -6.3705,8.973 -11.227897,1.47929 -10.633,-2.885 0.663737,-4.86932 -5.3454,-0.759 -5.2646,-3.247 -5.2377,-4.251 -2.1717,8.628 -4.8404,3.635 1.0036,1.12 -6.2658,-1.527 -2.8036,-1.818 -2.9006,-2.833 -0.4275,-5.812 -0.5907,-10.442 -3.3544,-5.345 -1.158387,-5.35901 -4.022445,-2.14205 -2.475089,2.78006 -0.775624,3.87364 -5.658855,-3.80895 -2.665746,-4.19391 2.608879,-2.3944 4.718049,-2.74042 C 69.21285,146.83412 65.4154,135.471 58.557,135.135 c 1.0791,2.214 0.321843,11.36216 -3.2331,6.341 -2.271057,-3.20774 -7.4921,-15.295 -3.1667,-17.406 5.6434,-8.377 -4.715113,-5.97896 -3.805335,-9.00222 0.677066,-2.24994 9.312313,-6.88048 11.702626,-1.56645 1.463836,3.25432 13.166009,3.34367 12.706909,4.13767 -0.8742,1.006 -1.6832,-10.464 0.6784,-8.406 5.0956,0.096 2.9995,1.98 7.6184,2.217 -4.0221,-1.465 2.022101,-4.01261 4.0135,-1.606 0.89223,1.07826 -5.4388,0.185 3.2368,3.938 0.2976,0.599 1.891989,2.08712 4.137789,-1.28788 3.6106,6.829 18.629181,-1.14238 12.405181,5.51962 11.123,1.963 -1.78247,-0.67974 -3.17547,4.04726 -2.7525,11.445 7.10087,2.9824 7.872,4.007 3.10143,4.12088 -3.239,11.985 -4.148,7.188 -2.71,2.893 1.127,2.3 3.907,4.711 1.199,-0.357 7.368,-0.384 6.125,3.703 -7.393,0.173 -1.03778,3.24304 -4.79501,3.88635 z" />
  </g>
</svg>
