<?xml version="1.0" encoding="UTF-8" standalone="no"?>
<svg
   version="1.1"
   viewBox="0 0 478.71898 477.34438"
   id="svg1"
   width="478.71899"
   height="477.34439"
   xmlns="http://www.w3.org/2000/svg"
   xmlns:svg="http://www.w3.org/2000/svg">
  <defs
     id="defs1" />
  <path
     d="m 242.402,0 -22.906,117.44 c 5.9091,-0.8949 11.966,-1.3438 18.125,-1.3438 8.3953,0 16.591,0.85947 24.5,2.5 L 242.402,0.0062 Z m -87.062,15.031 21.031,117.84 c 12.096,-7.1948 25.552,-12.299 39.906,-14.875 L 155.339,15.026 Z m 173.69,2.4375 -64.125,101.72 c 14.293,3.3233 27.612,9.2006 39.438,17.125 l 24.688,-118.84 z m -249.44,43.031 62.562,102.88 c 8.6832,-11.384 19.356,-21.146 31.5,-28.812 L 79.59,60.5055 Z m 323.88,4.5312 -97.5,72.406 c 11.995,8.3266 22.392,18.802 30.656,30.844 z m -164.16,64.906 c -1.0487,-0.008 -2.1059,0.005 -3.1562,0.0312 -55.597,-0.58048 -106.32,50.171 -104.66,106 -0.4019,47.203 34.268,93.11 80.875,103.19 42.281,10.45 90.54,-7.3766 113.78,-44.594 24.159,-36.188 23.554,-87.289 -3.4375,-121.75 -19.366,-26.001 -50.896,-42.633 -83.406,-42.875 z m -213.97,0.3125 96.531,74.094 c 3.8728,-14.16 10.273,-27.257 18.688,-38.812 l -115.22,-35.281 z m 430.38,6.0312 -118.59,32.719 c 12.939,19.152 20.5,42.241 20.5,67.094 0,66.274 -53.726,120 -120,120 -61.502,0 -112.17,-46.28 -119.16,-105.91 l -111.56,52.781 123.78,-10.469 -85.5,90.125 111.62,-54.5 -47.188,114.94 84.438,-91.156 -2.5,124.22 45.812,-115.5 42.531,116.72 1,-124.22 81.844,93.469 -43.969,-116.22 110.06,57.594 -82.969,-92.469 123.47,13.938 -110.78,-56.25 120.16,-31.594 -123.59,-12.469 100.59,-72.844 z M 121.41,206.0924 0,214.8736 l 118.41,34.719 c -0.49736,-4.4369 -0.78125,-8.9303 -0.78125,-13.5 0,-10.355 1.315,-20.414 3.7812,-30 z"
     fill="#1a1a1a"
     id="path1" />
</svg>
